<svg xmlns="http://www.w3.org/2000/svg" viewBox="0 0 24 30" enable-background="new 0 0 24 24" x="0px" y="0px"><g><path style="fill: #4283B4" d="M12 24c-6.617 0-12-5.383-12-12s5.383-12 12-12 12 5.383 12 12-5.383 12-12 12zm0-22c-5.514 0-10 4.486-10 10s4.486 10 10 10 10-4.486 10-10-4.486-10-10-10zM17 13.667c-.553 0-1-.448-1-1v-2.667h-2.667c-.552 0-1-.448-1-1s.448-1 1-1h3.667c.553 0 1 .448 1 1v3.667c0 .552-.447 1-1 1zM7 16c-.256 0-.512-.098-.707-.293-.391-.391-.391-1.023 0-1.414l3-3c.391-.391 1.023-.391 1.414 0l1.293 1.293 4.293-4.293c.391-.391 1.023-.391 1.414 0s.391 1.023 0 1.414l-5 5c-.391.391-1.023.391-1.414 0l-1.293-1.293-2.293 2.293c-.195.195-.451.293-.707.293z"/></g></svg>